PathFileType	4	(X/Y/Z)	OpenSim_Sub06_EMGStiffKnee_Accel.trc
DataRate	CameraRate	NumFrames	NumMarkers	Units	OrigDataRate	OrigDataStartFrame	OrigNumFrames
100	100	37	8	m	100	4754	5432
Frame#	Time	torso_imu_offset_imu	pelvis_imu_offset_imu	tibia_r_imu_offset_imu	femur_r_imu_offset_imu	tibia_l_imu_offset_imu	femur_l_imu_offset_imu	toes_r_imu_offset_imu	toes_l_imu_offset_imu
				X1	Y1	Z1	X2	Y2	Z2	X3	Y3	Z3	X4	Y4	Z4	X5	Y5	Z5	X6	Y6	Z6	X7	Y7	Z7	X8		Y8	Z8	

4754	47.53000000	15.49195500	0.83067800	4.72037000	8.53676600	2.41539300	12.09553100	27.06180300	0.36552100	12.58155900	20.69609400	-2.67722700	4.03399000	16.24368000	5.49683500	2.00010800	9.13604900	2.86255200	-2.99899400	9.26668799	-45.71005800	4.03351200	3.83250200	3.68286400	13.51238700
4755	47.54000000	15.76410400	0.11561400	7.05087200	17.41768300	4.49205400	10.35728800	42.99297900	-11.23376600	12.28148900	36.16784300	-10.12606600	-3.96668800	17.30776500	5.42952800	4.70809100	11.62056400	3.26915000	-3.11242900	0.30772700	17.12913599	17.98136500	3.38887500	5.16007800	14.04708200
4756	47.55000000	13.91589300	-1.25387500	8.75890400	22.98267700	7.08434100	13.01235400	22.26433500	-16.84979900	6.99195000	28.59857200	-4.43670400	-7.13900500	14.49018300	2.77823400	7.57872100	12.34065300	2.53863400	-3.24498800	9.13734600	-2.15158800	7.83819700	3.31465200	4.70872400	14.48987400
4757	47.56000000	13.61481900	-3.10970800	8.98945300	14.53029800	7.13783800	13.23804600	4.57090500	-11.57036900	10.39757900	14.49487200	5.97022600	1.02418200	11.52926100	-0.30945500	8.52966100	12.31188300	1.72545400	-2.68980600	7.96371300	4.43972500	11.26787300	3.34023500	3.93538200	15.04705300
4758	47.57000000	12.20176700	-4.22784300	7.90508700	9.19511800	1.39000600	8.68059800	1.66491700	-4.24899500	5.12948300	8.48256700	6.90549700	6.10805600	12.30406500	-2.19352400	7.14657600	12.97567300	1.44165400	-2.36351900	4.57909000	0.74254700	9.84730000	3.21856200	2.56642800	16.43607500
4759	47.58000000	10.93820300	-4.40359900	5.98859700	7.33894900	-1.98636800	6.52395800	2.49099300	6.89802300	-5.23864600	5.74121300	1.04528900	2.63376800	15.38972000	-3.14652100	4.81861900	14.28768600	1.39409600	-2.44240500	5.06825800	-1.84248900	8.91403000	3.27048400	-1.18554400	16.75657700
4760	47.59000000	10.63111100	-4.40088800	4.78691700	7.72137800	-4.53325600	5.99940100	5.02379000	15.52289200	-8.35594500	4.53910900	-3.40505600	0.31978700	16.78904900	-3.86586600	2.83349900	15.89805700	0.02497600	-2.29628400	5.35985700	-6.70223500	6.95350100	3.65935000	-2.50539100	16.07003600
4761	47.60000000	10.12392700	-3.83595600	4.03954000	7.69521200	-5.25987100	5.43050200	7.32559000	18.20071400	-7.30097000	2.40736600	-2.49547800	0.59509800	14.88181200	-4.29857400	2.04513000	14.66365200	-0.52657000	-0.70305900	4.66106600	-8.98670900	6.36809200	4.04513800	-1.58550900	15.00138900
4762	47.61000000	9.23906300	-3.01336900	3.82833100	7.88618900	-5.24462300	4.72134400	7.43707500	16.49843000	-8.67540000	0.55324500	-0.87495300	-1.19507200	12.16495300	-4.96184200	2.08550600	13.93120800	-1.05965800	0.74702200	5.28247200	-5.49941400	7.38199000	4.49956600	2.06295200	14.81933900
4763	47.62000000	9.56348100	-2.02118700	3.85977800	8.17931300	-5.14414300	4.54428200	7.49377500	12.30581100	-7.17984300	0.91798100	-0.47373600	-2.37892300	9.81895600	-5.81797900	2.47001200	13.65427900	-1.76851600	1.26093100	6.08406000	-5.08219400	6.85504100	5.73825400	4.70294700	16.05945400
4764	47.63000000	10.20929500	-0.73309300	3.91729400	8.64506100	-3.89564200	4.63283800	8.34699000	10.05324900	-3.68804600	4.25198500	-0.87964800	-2.33354800	7.88676600	-6.68914400	2.89439100	13.03393200	-2.52178700	1.00168500	6.37434300	-4.20872600	6.72032700	6.85888900	3.48661900	14.80978600
4765	47.64000000	10.17766600	0.19868000	4.09954800	8.21891200	-2.27706300	4.75587500	8.88561000	9.34321200	-1.13864800	9.26860600	-0.78199100	-3.11961800	6.40957400	-7.75259900	3.36800000	12.13924300	-2.93374000	0.80871800	5.44921100	-2.82992100	7.96718800	10.35100700	2.39477600	12.81599600
4766	47.65000000	9.79064500	0.58017400	4.49779600	7.18139200	-0.77748400	5.02876100	8.69322600	7.04147500	0.42648000	13.42213100	-1.73697600	-6.11430100	5.32654500	-8.55299900	3.73419900	11.38060700	-3.33957300	0.87930200	5.33398200	-1.56907800	8.76754600	9.05881800	2.34427800	13.51758300
4767	47.66000000	9.09894600	0.11367200	4.68359800	7.11696200	0.64252200	5.28129400	9.60919400	2.70528700	2.35534900	13.02889300	-3.21732500	-8.06756900	4.58873200	-9.21136500	3.46220600	10.52674400	-3.36088500	1.06883500	4.84761600	-1.23982500	8.87493100	-0.66430100	5.04958000	22.27201200
4768	47.67000000	8.82966400	-0.68346900	4.75845600	7.96287600	2.02407500	5.51715400	12.36363700	-2.32524100	2.62664900	10.58749100	-3.12204000	-5.89385700	4.16648500	-9.34774900	3.00043400	9.67210000	-3.16571600	0.91252300	5.10177200	-1.19129300	8.93341800	15.11139900	1.70908500	25.75511700
4769	47.68000000	8.63193000	-1.44888300	4.97478500	9.27705400	2.69221400	6.11881100	12.91544400	-3.86178500	1.93229400	9.17883600	-3.43095800	-0.96562800	3.45898500	-8.12862400	3.13341500	8.95169000	-2.58271900	0.09784400	5.56250700	-1.07906600	8.76642700	-0.32390700	1.16718400	18.87000000
4770	47.69000000	8.71691000	-1.98046200	5.11911400	10.01967800	3.10973000	6.92921900	10.53237300	-2.47058100	2.00415000	8.70510100	-3.06214800	1.69368300	2.21649000	-6.23420200	3.98216800	9.09025800	-0.99894900	-0.58269100	4.80118800	-1.83671800	8.67429100	-9.63607000	3.87380200	12.19554000
4771	47.70000000	8.84136700	-2.20665000	5.39330600	10.16398000	2.92063700	6.64670500	8.30896400	0.28055200	1.77239000	10.21554500	-2.51539900	1.70395900	1.30300700	-4.57426800	5.40649200	9.89750600	0.83848300	-0.73409700	4.64609000	-1.91039400	8.76860800	-7.04520000	1.34029200	11.23998700
4772	47.71000000	8.83227300	-2.11663600	5.68002400	9.25474100	2.28732900	5.81542800	8.30163400	2.89398700	1.43405000	11.13763900	-1.62434700	1.15997400	0.50004200	-3.52736100	6.70366700	10.53174900	1.98885000	-0.27091900	4.63425900	-2.29452000	8.76195600	-3.25959600	0.03172700	12.06412700
4773	47.72000000	8.99401800	-1.89773100	5.83244400	7.95581700	2.33097500	5.13054700	9.65461500	4.82553200	0.86459100	10.81056700	-0.66618300	0.60381000	-0.24264700	-3.26755000	7.15272700	10.55107000	2.44424600	0.32234900	4.63218700	-2.63974500	8.42310500	-1.25337500	0.39101900	13.30096900
4774	47.73000000	9.01949300	-1.68142500	5.60129300	7.39307200	2.34239000	4.91667600	10.57801800	5.80475900	0.53600200	9.63914000	-0.36856900	0.33279300	-0.30049000	-3.26087600	7.18540500	10.19967100	2.13513500	0.73529400	5.01856000	-2.66487200	8.36885100	-0.65868200	1.41296200	13.61570200
4775	47.74000000	8.95217700	-1.48621600	5.50246700	7.34315400	2.28468300	5.11361600	10.19486700	6.14576200	0.81717500	8.71792300	-0.42407200	0.37919000	0.31968500	-3.75002500	6.60216300	9.89932600	1.68472900	0.76624500	4.92158900	-2.56642800	8.41640600	-0.88838200	1.55543100	12.86440200
4776	47.75000000	8.98160200	-1.53733300	5.44799800	7.61628800	2.12791200	5.28232600	9.56473000	6.01306100	0.99780900	8.47054100	-0.48154000	0.40691000	2.07917600	-3.98205000	5.39479700	9.71775800	1.51873200	0.50267500	4.74382800	-2.41235000	8.44244700	-0.34972800	0.55078800	12.29713200
4777	47.76000000	8.85287500	-1.56014000	5.53430100	8.01100300	2.22919500	5.37394000	9.24642000	5.12815500	1.06126700	8.72575900	-0.59178900	-0.08609500	4.91273200	-3.74491600	3.56519800	9.49584900	1.70767900	0.23010100	4.89075500	-2.57194900	8.33649700	0.80683400	0.38845900	12.18764600
4778	47.77000000	8.82852600	-1.48780500	5.63775700	8.38650000	2.44445000	5.29494700	9.52165500	3.78878300	0.86981000	9.00507200	-0.34755700	-0.94580300	7.63391200	-3.63327800	1.80613700	9.24577300	1.87543400	0.27101100	5.05935500	-2.67486600	8.34655700	1.71935100	0.63763900	11.99916600
4779	47.78000000	8.68238800	-1.36328100	5.72743200	8.39481600	2.51484500	5.14427500	9.86952300	2.37968400	0.84495500	9.33188400	0.38474400	-1.89124500	8.91964200	-4.02115300	0.85622700	8.91498800	2.55764400	0.42326100	4.90097900	-2.62173900	8.25669000	2.23991800	1.25104700	11.88057300
4780	47.79000000	8.48420100	-1.26098100	5.75537400	8.04555100	2.47267700	5.05576800	10.06666800	1.43625700	1.13064300	9.45676800	0.83278900	-2.62684500	8.62777400	-4.82363700	0.89998900	8.69093500	2.44447100	0.62526800	4.96473000	-2.41176200	8.24610900	2.72149600	1.65197100	12.02918800
4781	47.80000000	8.31497900	-1.19187500	5.83849400	7.89775300	2.38633600	5.14182000	10.09524600	0.83408600	1.31919800	9.11590900	0.84153200	-2.79868400	7.41559800	-5.63572900	1.36009600	8.57623100	1.97541700	0.94987500	5.06565500	-2.04015300	8.34612600	3.97876300	1.79036200	12.80060500
4782	47.81000000	8.22156100	-1.13885500	6.01286700	7.91280700	2.20618600	5.26341600	9.91193000	0.46980600	1.36628600	8.52799000	0.33454700	-2.26411300	6.16923000	-5.67440700	2.18985500	8.55238100	1.67355300	1.22580000	5.05945800	-2.05707400	8.41677700	6.09737100	1.87702700	13.56956400
4783	47.82000000	8.22093000	-1.16710100	6.16562400	8.13840800	2.19030900	5.30558800	9.77553200	0.22022500	1.42651000	8.21474400	-0.10802400	-1.64704100	5.59049400	-4.92975000	3.25150800	8.51394700	1.50352500	1.30071500	5.41874800	-1.90955900	8.16342600	7.49751200	2.44806100	13.43467400
4784	47.83000000	8.27518500	-1.21940600	6.25888700	8.36895500	2.14386800	5.30793400	9.70957200	0.42855100	1.12213700	8.35980200	-0.72969600	-1.26545700	5.80300100	-3.93335100	4.19688600	8.40621500	1.40011700	1.14673800	5.10496300	-2.10061200	8.24594400	7.54801300	2.84390000	12.43768500
4785	47.84000000	8.40126300	-1.18639500	6.29462700	8.39214300	2.05539100	5.09960200	9.73812800	1.05730700	0.92177100	8.90190000	-1.41243000	-1.15099600	6.28633300	-2.67565500	4.81093600	8.32458100	1.32867800	0.98007700	5.13741700	-2.28888000	8.25727900	7.78317600	2.68789100	11.70772600
4786	47.85000000	8.31973500	-1.09477400	6.39219700	8.29336700	1.84298300	4.92953000	9.95038300	1.95196800	0.73946700	9.36608100	-1.91548400	-1.02494200	7.02750300	-1.48568700	5.42000000	8.36372800	1.25279500	0.87414400	5.36322500	-2.39295400	8.17375200	8.74890300	2.59624000	11.51600400
4787	47.86000000	8.55421100	-0.90065200	6.45574900	8.21875300	1.71651400	4.64485900	9.99579300	2.63658200	0.55211900	9.42990900	-2.22976100	-0.78203800	7.89237800	-0.95340800	5.86989700	8.39000300	1.23040200	0.69556500	5.32729300	-2.42705600	8.08992500	9.22078500	3.39113200	11.35028600
4788	47.87000000	8.37903100	-0.83867100	6.31341000	8.17055200	1.85628500	4.46690100	9.93759300	3.02519500	0.56910300	9.18741500	-2.65698300	-0.62616800	8.87610600	-0.87374200	5.60303300	8.64710800	1.28893400	0.65798600	5.60551600	-2.26195400	8.07361300	9.51878400	4.81777300	11.10283200
4789	47.88000000	8.30967000	-0.73443000	6.37412200	8.14666200	1.89091500	4.42401200	9.75130000	3.20763600	0.59518100	8.97039500	-2.63838100	-0.71156000	9.69628400	-0.91399000	4.59240700	8.97410100	1.57156900	0.81853200	5.52657100	-2.20230500	8.21033300	9.86339700	5.71361400	10.45028100
4790	47.89000000	8.42696500	-0.53605100	6.38936400	8.21800100	2.25071200	4.39008100	9.62849400	3.29273600	0.81272400	8.92599800	-2.42263300	-1.04079300	10.02815200	-0.70276400	2.77448100	9.04097300	2.05875400	1.09833400	5.48852500	-2.10402700	8.06694100	10.74295400	6.07926300	9.69420100
